# xmcd
#
# Track frame offsets:
#	150
#	23278
#	47860
#	65528
#	82429
#
# Disc length: 1326 seconds
#
# Revision: 0
# Processed by: cddbd v1.5.2PL0 Copyright (c) Steve Scherf et al.
# Submitted via: EasyCDDAExtractor 11.9.9.666
#
DISCID=3c052c05
DTITLE=Jessie Rae - The Originals
DYEAR=1900
DGENRE=Blues/Folk
TTITLE0=Hide
TTITLE1=Spin
TTITLE2=Hey There
TTITLE3=Take it Back
TTITLE4=Canyon Blues
EXTD=
EXTT0=
EXTT1=
EXTT2=
EXTT3=
EXTT4=
PLAYORDER=
